<svg width="25" height="26" viewBox="0 0 25 26" fill="none" xmlns="http://www.w3.org/2000/svg">
<path d="M12.5 0.5C19.4052 0.5 25 6.09476 25 13C25 19.9052 19.4052 25.5 12.5 25.5C5.59476 25.5 0 19.9052 0 13C0 6.09476 5.59476 0.5 12.5 0.5ZM11.0433 7.7379L14.8488 11.3871H5.64516C4.9748 11.3871 4.43548 11.9264 4.43548 12.5968V13.4032C4.43548 14.0736 4.9748 14.6129 5.64516 14.6129H14.8488L11.0433 18.2621C10.5544 18.7308 10.5444 19.5121 11.0232 19.9909L11.5776 20.5403C12.0514 21.0141 12.8175 21.0141 13.2863 20.5403L19.9748 13.8569C20.4486 13.3831 20.4486 12.6169 19.9748 12.1482L13.2863 5.45464C12.8125 4.98085 12.0464 4.98085 11.5776 5.45464L11.0232 6.00403C10.5444 6.4879 10.5544 7.26915 11.0433 7.7379Z" fill="url(#paint0_linear_0_5478)"/>
<defs>
<linearGradient id="paint0_linear_0_5478" x1="25" y1="13" x2="1.19899e-07" y2="13" gradientUnits="userSpaceOnUse">
<stop stop-color="#002274"/>
<stop offset="0.524066" stop-color="#6F1CC3"/>
<stop offset="1" stop-color="#195AF6"/>
</linearGradient>
</defs>
</svg>
