<svg width="39" height="29" viewBox="0 0 39 29" fill="none" xmlns="http://www.w3.org/2000/svg">
<path d="M37.563 13.6534C35.8761 6.0269 33.3374 1.95636 29.5715 0.844473C28.7798 0.612273 27.9587 0.496268 27.1337 0.500092C26.0433 0.500092 25.0937 0.765734 24.0892 1.04728C22.8787 1.38689 21.5035 1.77263 19.4985 1.77263C17.4934 1.77263 16.1175 1.38769 14.9046 1.04808C13.8993 0.765735 12.9505 0.500092 11.8632 0.500092C11.0102 0.497134 10.1608 0.612769 9.33962 0.843678C5.59357 1.95079 3.05644 6.01974 1.34487 13.6486C-0.495541 21.8581 0.41035 27.0413 3.88519 28.2439C4.3615 28.4118 4.86266 28.4984 5.3677 28.5C7.74815 28.5 9.65696 26.5172 10.9613 24.8939C12.4351 23.0567 14.1602 22.1246 19.4985 22.1246C24.2665 22.1246 26.2398 22.7712 27.9442 24.8939C29.0155 26.2285 30.028 27.1622 31.0381 27.75C32.3814 28.531 33.7239 28.7044 35.0275 28.2566C37.081 27.5559 38.2581 25.7036 38.527 22.7497C38.7314 20.4846 38.4164 17.5092 37.563 13.6534ZM15.6809 13.2255H13.1358V15.7706C13.1358 16.1081 13.0017 16.4318 12.7631 16.6704C12.5244 16.9091 12.2007 17.0431 11.8632 17.0431C11.5257 17.0431 11.2021 16.9091 10.9634 16.6704C10.7248 16.4318 10.5907 16.1081 10.5907 15.7706V13.2255H8.0456C7.7081 13.2255 7.38443 13.0914 7.14578 12.8528C6.90713 12.6141 6.77306 12.2905 6.77306 11.953C6.77306 11.6155 6.90713 11.2918 7.14578 11.0531C7.38443 10.8145 7.7081 10.6804 8.0456 10.6804H10.5907V8.13535C10.5907 7.79785 10.7248 7.47417 10.9634 7.23552C11.2021 6.99687 11.5257 6.8628 11.8632 6.8628C12.2007 6.8628 12.5244 6.99687 12.7631 7.23552C13.0017 7.47417 13.1358 7.79785 13.1358 8.13535V10.6804H15.6809C16.0184 10.6804 16.342 10.8145 16.5807 11.0531C16.8193 11.2918 16.9534 11.6155 16.9534 11.953C16.9534 12.2905 16.8193 12.6141 16.5807 12.8528C16.342 13.0914 16.0184 13.2255 15.6809 13.2255ZM22.3617 13.5437C22.0471 13.5437 21.7396 13.4504 21.478 13.2756C21.2164 13.1008 21.0125 12.8524 20.8921 12.5617C20.7717 12.271 20.7402 11.9512 20.8016 11.6426C20.863 11.3341 21.0145 11.0507 21.2369 10.8282C21.4594 10.6057 21.7428 10.4542 22.0514 10.3929C22.3599 10.3315 22.6798 10.363 22.9704 10.4834C23.2611 10.6038 23.5095 10.8077 23.6843 11.0692C23.8591 11.3308 23.9524 11.6384 23.9524 11.953C23.9524 12.3748 23.7848 12.7794 23.4865 13.0778C23.1882 13.3761 22.7836 13.5437 22.3617 13.5437ZM25.8612 17.0431C25.5464 17.0431 25.2387 16.9497 24.9771 16.7748C24.7154 16.5998 24.5115 16.3512 24.3912 16.0603C24.2709 15.7694 24.2397 15.4493 24.3014 15.1407C24.3631 14.832 24.515 14.5486 24.7378 14.3263C24.9607 14.104 25.2445 13.9528 25.5533 13.8919C25.8621 13.8309 26.1821 13.863 26.4727 13.984C26.7633 14.105 27.0114 14.3095 27.1857 14.5716C27.36 14.8337 27.4527 15.1417 27.4519 15.4564C27.4508 15.8776 27.2828 16.2812 26.9846 16.5786C26.6864 16.8761 26.2824 17.0431 25.8612 17.0431ZM25.8612 10.0442C25.5466 10.0442 25.239 9.95087 24.9775 9.77608C24.7159 9.6013 24.512 9.35287 24.3916 9.06221C24.2712 8.77155 24.2397 8.45172 24.3011 8.14316C24.3625 7.83459 24.514 7.55116 24.7364 7.3287C24.9589 7.10624 25.2423 6.95474 25.5509 6.89337C25.8594 6.83199 26.1793 6.86349 26.4699 6.98389C26.7606 7.10428 27.009 7.30816 27.1838 7.56975C27.3586 7.83133 27.4519 8.13887 27.4519 8.45348C27.4519 8.87536 27.2843 9.27995 26.986 9.57826C26.6877 9.87657 26.2831 10.0442 25.8612 10.0442ZM29.3607 13.5437C29.0461 13.5437 28.7385 13.4504 28.477 13.2756C28.2154 13.1008 28.0115 12.8524 27.8911 12.5617C27.7707 12.271 27.7392 11.9512 27.8006 11.6426C27.862 11.3341 28.0134 11.0507 28.2359 10.8282C28.4584 10.6057 28.7418 10.4542 29.0504 10.3929C29.3589 10.3315 29.6788 10.363 29.9694 10.4834C30.2601 10.6038 30.5085 10.8077 30.6833 11.0692C30.8581 11.3308 30.9514 11.6384 30.9514 11.953C30.9514 12.3748 30.7838 12.7794 30.4855 13.0778C30.1872 13.3761 29.7826 13.5437 29.3607 13.5437Z" fill="white"/>
</svg>
