<svg width="32" height="32" viewBox="0 0 32 32" fill="none" xmlns="http://www.w3.org/2000/svg">
<path fill-rule="evenodd" clip-rule="evenodd" d="M16.0693 1.66666H15.9306C14.732 1.66666 13.7333 1.66666 12.9413 1.77332C12.104 1.88532 11.348 2.13332 10.7413 2.73999C10.1333 3.34799 9.88529 4.10399 9.77329 4.93999C9.69729 5.50932 9.67463 6.86799 9.66929 8.03332C6.97329 8.12266 5.35329 8.43732 4.22929 9.56266C2.66663 11.124 2.66663 13.6387 2.66663 18.6667C2.66663 23.6947 2.66663 26.2093 4.22929 27.7707C5.79063 29.3333 8.30529 29.3333 13.3333 29.3333H18.6666C23.6946 29.3333 26.2093 29.3333 27.7706 27.7707C29.3333 26.2093 29.3333 23.6947 29.3333 18.6667C29.3333 13.6387 29.3333 11.124 27.7706 9.56266C26.6466 8.43732 25.0266 8.12266 22.3306 8.03466C22.3253 6.86799 22.304 5.50932 22.2266 4.94132C22.1146 4.10399 21.8666 3.34799 21.2586 2.74132C20.652 2.13332 19.896 1.88532 19.0586 1.77332C18.2666 1.66666 17.2666 1.66666 16.0693 1.66666ZM20.3306 8.00266C20.324 6.87332 20.3053 5.65866 20.2453 5.20666C20.1613 4.59199 20.0186 4.32799 19.8453 4.15466C19.672 3.98132 19.408 3.83866 18.792 3.75466C18.1493 3.66932 17.2853 3.66666 16 3.66666C14.7146 3.66666 13.8506 3.66932 13.2066 3.75599C12.592 3.83866 12.328 3.98132 12.1546 4.15599C11.9813 4.32932 11.8386 4.59199 11.7546 5.20666C11.6946 5.65999 11.6746 6.87332 11.6693 8.00266C12.1906 7.99999 12.7466 7.99999 13.3333 7.99999H18.6666C19.2546 7.99999 19.8093 7.99999 20.3306 8.00266ZM16 12.3333C16.2652 12.3333 16.5195 12.4387 16.7071 12.6262C16.8946 12.8138 17 13.0681 17 13.3333V13.3467C18.452 13.712 19.6666 14.8573 19.6666 16.444C19.6666 16.7092 19.5613 16.9636 19.3737 17.1511C19.1862 17.3386 18.9318 17.444 18.6666 17.444C18.4014 17.444 18.1471 17.3386 17.9595 17.1511C17.772 16.9636 17.6666 16.7092 17.6666 16.444C17.6666 15.932 17.0986 15.2227 16 15.2227C14.9013 15.2227 14.3333 15.932 14.3333 16.444C14.3333 16.956 14.9013 17.6667 16 17.6667C17.8466 17.6667 19.6666 18.9467 19.6666 20.8893C19.6666 22.476 18.452 23.62 17 23.9867V24C17 24.2652 16.8946 24.5196 16.7071 24.7071C16.5195 24.8946 16.2652 25 16 25C15.7347 25 15.4804 24.8946 15.2929 24.7071C15.1053 24.5196 15 24.2652 15 24V23.9867C13.548 23.6213 12.3333 22.476 12.3333 20.8893C12.3333 20.6241 12.4386 20.3698 12.6262 20.1822C12.8137 19.9947 13.0681 19.8893 13.3333 19.8893C13.5985 19.8893 13.8529 19.9947 14.0404 20.1822C14.2279 20.3698 14.3333 20.6241 14.3333 20.8893C14.3333 21.4013 14.9013 22.1107 16 22.1107C17.0986 22.1107 17.6666 21.4013 17.6666 20.8893C17.6666 20.3773 17.0986 19.6667 16 19.6667C14.1533 19.6667 12.3333 18.3867 12.3333 16.444C12.3333 14.8573 13.548 13.712 15 13.3467V13.3333C15 13.0681 15.1053 12.8138 15.2929 12.6262C15.4804 12.4387 15.7347 12.3333 16 12.3333Z" fill="url(#paint0_linear_0_5483)" fill-opacity="0.8"/>
<defs>
<linearGradient id="paint0_linear_0_5483" x1="29.3333" y1="15.7373" x2="2.66663" y2="15.7373" gradientUnits="userSpaceOnUse">
<stop stop-color="#FF006B"/>
<stop offset="1" stop-color="#0766F5"/>
</linearGradient>
</defs>
</svg>
