<svg width="28" height="28" viewBox="0 0 28 28" fill="none" xmlns="http://www.w3.org/2000/svg">
<path d="M3.33329 27.3333C2.59996 27.3333 1.97196 27.072 1.44929 26.5493C0.926628 26.0267 0.665739 25.3991 0.666628 24.6667V11.3333C0.666628 10.6 0.927962 9.97199 1.45063 9.44933C1.97329 8.92666 2.60085 8.66577 3.33329 8.66666H24.6666C25.4 8.66666 26.028 8.92799 26.5506 9.45066C27.0733 9.97333 27.3342 10.6009 27.3333 11.3333V24.6667C27.3333 25.4 27.072 26.028 26.5493 26.5507C26.0266 27.0733 25.3991 27.3342 24.6666 27.3333H3.33329ZM12.3666 22.6333L18.5 18.5667C18.7 18.4333 18.8 18.2444 18.8 18C18.8 17.7556 18.7 17.5667 18.5 17.4333L12.3666 13.3667C12.1444 13.2111 11.9164 13.1942 11.6826 13.316C11.4489 13.4378 11.3324 13.6324 11.3333 13.9V22.1C11.3333 22.3667 11.4502 22.5613 11.684 22.684C11.9177 22.8067 12.1453 22.7898 12.3666 22.6333ZM4.66663 7.33333C4.28885 7.33333 3.97196 7.20533 3.71596 6.94933C3.45996 6.69333 3.33241 6.37688 3.33329 5.99999C3.33329 5.62222 3.4613 5.30533 3.7173 5.04933C3.9733 4.79333 4.28974 4.66577 4.66663 4.66666H23.3333C23.7111 4.66666 24.028 4.79466 24.284 5.05066C24.54 5.30666 24.6675 5.62311 24.6666 5.99999C24.6666 6.37777 24.5386 6.69466 24.2826 6.95066C24.0266 7.20666 23.7102 7.33422 23.3333 7.33333H4.66663ZM8.66663 3.33333C8.28885 3.33333 7.97196 3.20533 7.71596 2.94933C7.45996 2.69333 7.33241 2.37688 7.3333 1.99999C7.3333 1.62222 7.4613 1.30533 7.7173 1.04933C7.9733 0.793328 8.28974 0.665772 8.66663 0.666661H19.3333C19.7111 0.666661 20.028 0.794661 20.284 1.05066C20.54 1.30666 20.6675 1.62311 20.6666 1.99999C20.6666 2.37777 20.5386 2.69466 20.2826 2.95066C20.0266 3.20666 19.7102 3.33422 19.3333 3.33333H8.66663Z" fill="url(#paint0_linear_0_5477)" fill-opacity="0.8"/>
<defs>
<linearGradient id="paint0_linear_0_5477" x1="27.3333" y1="14.2287" x2="0.666626" y2="14.2287" gradientUnits="userSpaceOnUse">
<stop stop-color="#FF006B"/>
<stop offset="1" stop-color="#0766F5"/>
</linearGradient>
</defs>
</svg>
