<svg width="26" height="24" viewBox="0 0 26 24" fill="none" xmlns="http://www.w3.org/2000/svg">
<path d="M25.0598 8.67616L19.5051 14.7531C19.2442 15.0385 18.8904 15.1988 18.5215 15.1988C18.1525 15.1988 17.7987 15.0385 17.5378 14.7531C17.277 14.4677 17.1304 14.0806 17.1304 13.677C17.1304 13.2733 17.277 12.8862 17.5378 12.6008L20.7214 9.12054H17.2497C15.0941 9.11977 12.9995 9.90287 11.2951 11.3467C9.59077 12.7905 8.37343 14.8131 7.83453 17.0965C7.78894 17.2897 7.70902 17.4711 7.59932 17.6305C7.48962 17.7899 7.3523 17.9241 7.1952 18.0255C7.0381 18.1268 6.86429 18.1933 6.68369 18.2212C6.5031 18.249 6.31926 18.2377 6.14268 18.1878C5.96609 18.1379 5.80021 18.0505 5.65451 17.9305C5.50881 17.8105 5.38615 17.6602 5.29352 17.4884C5.20089 17.3165 5.14011 17.1263 5.11465 16.9288C5.0892 16.7312 5.09956 16.5301 5.14515 16.3369C5.8369 13.4006 7.40167 10.7994 9.59308 8.9429C11.7845 7.08637 14.4781 6.07995 17.2497 6.08208H20.7214L17.5402 2.59798C17.2793 2.31258 17.1327 1.92549 17.1327 1.52186C17.1327 1.11824 17.2793 0.731148 17.5402 0.445743C17.801 0.160338 18.1549 4.25286e-09 18.5238 0C18.8927 -4.25286e-09 19.2466 0.160338 19.5074 0.445743L25.0621 6.52266C25.1916 6.66399 25.2943 6.83191 25.3643 7.01678C25.4343 7.20165 25.4702 7.39983 25.47 7.59994C25.4698 7.80004 25.4334 7.99812 25.363 8.18281C25.2926 8.36751 25.1896 8.53516 25.0598 8.67616ZM20.3742 20.2615H3.2473V5.57567C3.2473 5.17275 3.101 4.78632 2.84057 4.50141C2.58015 4.2165 2.22694 4.05644 1.85864 4.05644C1.49034 4.05644 1.13713 4.2165 0.876702 4.50141C0.616276 4.78632 0.469971 5.17275 0.469971 5.57567V20.768C0.469971 21.4395 0.713813 22.0835 1.14786 22.5584C1.5819 23.0332 2.17059 23.3 2.78442 23.3H20.3742C20.7425 23.3 21.0957 23.1399 21.3561 22.855C21.6166 22.5701 21.7629 22.1837 21.7629 21.7808C21.7629 21.3778 21.6166 20.9914 21.3561 20.7065C21.0957 20.4216 20.7425 20.2615 20.3742 20.2615Z" fill="url(#paint0_linear_0_7517)" fill-opacity="0.8"/>
<defs>
<linearGradient id="paint0_linear_0_7517" x1="25.47" y1="11.8498" x2="0.469971" y2="11.8498" gradientUnits="userSpaceOnUse">
<stop stop-color="#FF006B"/>
<stop offset="1" stop-color="#0766F5"/>
</linearGradient>
</defs>
</svg>
