<svg width="33" height="32" viewBox="0 0 33 32" fill="none" xmlns="http://www.w3.org/2000/svg">
<path d="M8.49996 25.3333C8.49996 26.8 9.69996 28 11.1666 28H21.8333C23.3 28 24.5 26.8 24.5 25.3333V12C24.5 10.5333 23.3 9.33333 21.8333 9.33333H11.1666C9.69996 9.33333 8.49996 10.5333 8.49996 12V25.3333ZM24.5 5.33333H21.1666L20.22 4.38667C19.98 4.14667 19.6333 4 19.2866 4H13.7133C13.3666 4 13.02 4.14667 12.78 4.38667L11.8333 5.33333H8.49996C7.76663 5.33333 7.16663 5.93333 7.16663 6.66667C7.16663 7.4 7.76663 8 8.49996 8H24.5C25.2333 8 25.8333 7.4 25.8333 6.66667C25.8333 5.93333 25.2333 5.33333 24.5 5.33333Z" fill="url(#paint0_linear_78_2266)" fill-opacity="0.8"/>
<defs>
<linearGradient id="paint0_linear_78_2266" x1="25.8333" y1="16.2058" x2="7.16663" y2="16.2058" gradientUnits="userSpaceOnUse">
<stop stop-color="#FF006B"/>
<stop offset="1" stop-color="#0766F5"/>
</linearGradient>
</defs>
</svg>
