<svg width="34" height="34" viewBox="0 0 34 34" fill="none" xmlns="http://www.w3.org/2000/svg">
<g clip-path="url(#clip0_0_3950)">
<path d="M11.8432 1.11832C8.44605 2.29682 5.51638 4.53364 3.48447 7.50023C1.45257 10.4668 0.425534 14.0068 0.554232 17.6003C0.68293 21.1937 1.96057 24.6512 4.1995 27.4648C6.43842 30.2784 9.52061 32.2999 12.9933 33.2324C15.8088 33.9589 18.7585 33.9908 21.589 33.3254C24.1531 32.7494 26.5237 31.5174 28.4687 29.75C30.4929 27.8544 31.9623 25.4429 32.7187 22.7747C33.5405 19.8732 33.6868 16.8219 33.1463 13.855H17.3363V20.4133H26.4924C26.3094 21.4593 25.9173 22.4577 25.3395 23.3486C24.7616 24.2395 24.01 25.0047 23.1296 25.5983C22.0117 26.3382 20.7513 26.8358 19.4294 27.0593C18.1038 27.3058 16.7441 27.3058 15.4185 27.0593C14.0748 26.7818 12.8038 26.2272 11.6865 25.431C9.89123 24.1602 8.54326 22.3548 7.8349 20.2725C7.11476 18.1512 7.11476 15.8515 7.8349 13.7302C8.33913 12.2433 9.17268 10.8894 10.2733 9.76973C11.5329 8.46484 13.1276 7.53209 14.8823 7.07384C16.6371 6.61558 18.4842 6.64951 20.221 7.17192C21.5778 7.58821 22.8185 8.3159 23.8441 9.29692C24.8765 8.26983 25.9071 7.24009 26.936 6.2077C27.4672 5.65254 28.0463 5.12395 28.5696 4.55551C27.0038 3.0986 25.166 1.96488 23.1615 1.21926C19.511 -0.106236 15.5167 -0.141858 11.8432 1.11832Z" fill="white"/>
<path d="M11.8445 1.11888C15.5177 -0.142156 19.512 -0.107472 23.1628 1.21716C25.1677 1.96785 27.0046 3.10703 28.5682 4.56935C28.037 5.13779 27.4765 5.66904 26.9347 6.22154C25.904 7.25039 24.8743 8.2757 23.8454 9.29747C22.8198 8.31646 21.5791 7.58877 20.2223 7.17247C18.4861 6.64824 16.6391 6.61234 14.8838 7.06873C13.1286 7.52511 11.5329 8.45614 10.272 9.75966C9.17133 10.8794 8.33778 12.2332 7.83356 13.7201L2.32715 9.45685C4.29811 5.54834 7.7107 2.55863 11.8445 1.11888Z" fill="#E33629"/>
<path d="M0.865012 13.679C1.16076 12.2121 1.65213 10.7916 2.32595 9.45557L7.83236 13.7295C7.11222 15.8508 7.11222 18.1505 7.83236 20.2718C5.99777 21.6885 4.1623 23.1122 2.32595 24.5431C0.639631 21.1864 0.125333 17.3619 0.865012 13.679Z" fill="#F8BD00"/>
<path d="M17.3376 13.853H33.1476C33.6881 16.8199 33.5418 19.8712 32.72 22.7727C31.9636 25.4409 30.4942 27.8524 28.47 29.748C26.6929 28.3615 24.9079 26.9855 23.1309 25.599C24.0119 25.0047 24.7639 24.2387 25.3417 23.3468C25.9196 22.4549 26.3114 21.4556 26.4937 20.4087H17.3376C17.335 18.2252 17.3376 16.0391 17.3376 13.853Z" fill="#587DBD"/>
<path d="M2.32422 24.544C4.16057 23.1273 5.99604 21.7035 7.83063 20.2727C8.54039 22.3557 9.89029 24.1612 11.6875 25.4311C12.8083 26.2237 14.0821 26.7737 15.4275 27.0461C16.7531 27.2927 18.1128 27.2927 19.4384 27.0461C20.7603 26.8227 22.0207 26.3251 23.1386 25.5852C24.9156 26.9718 26.7006 28.3477 28.4777 29.7343C26.533 31.5026 24.1624 32.7355 21.598 33.3122C18.7675 33.9776 15.8178 33.9457 13.0023 33.2193C10.7756 32.6247 8.6957 31.5766 6.89297 30.1407C4.98506 28.6256 3.42665 26.7166 2.32422 24.544Z" fill="#319F43"/>
</g>
<defs>
<clipPath id="clip0_0_3950">
<rect width="34" height="34" fill="white"/>
</clipPath>
</defs>
</svg>
