<svg width="32" height="32" viewBox="0 0 32 32" fill="none" xmlns="http://www.w3.org/2000/svg">
<path d="M21.3333 20C23.0747 20 24.5573 21.1133 25.1067 22.6667H26.6667C27.0203 22.6667 27.3594 22.8071 27.6095 23.0572C27.8595 23.3072 28 23.6464 28 24C28 24.3536 27.8595 24.6928 27.6095 24.9428C27.3594 25.1929 27.0203 25.3333 26.6667 25.3333H25.1067C24.8312 26.114 24.3203 26.7901 23.6445 27.2683C22.9687 27.7465 22.1612 28.0033 21.3333 28.0033C20.5054 28.0033 19.6979 27.7465 19.0221 27.2683C18.3463 26.7901 17.8355 26.114 17.56 25.3333H5.33333C4.97971 25.3333 4.64057 25.1929 4.39052 24.9428C4.14048 24.6928 4 24.3536 4 24C4 23.6464 4.14048 23.3072 4.39052 23.0572C4.64057 22.8071 4.97971 22.6667 5.33333 22.6667H17.56C17.836 21.8866 18.3471 21.2112 19.0229 20.7337C19.6986 20.2561 20.5058 19.9998 21.3333 20ZM10.6667 12C11.452 11.9999 12.22 12.231 12.8748 12.6644C13.5297 13.0978 14.0425 13.7144 14.3493 14.4373L14.4387 14.6667H26.6667C27.0065 14.667 27.3334 14.7972 27.5805 15.0305C27.8276 15.2638 27.9763 15.5826 27.9962 15.9219C28.0161 16.2611 27.9058 16.5952 27.6876 16.8558C27.4695 17.1164 27.1601 17.2839 26.8227 17.324L26.6667 17.3333H14.44C14.1712 18.0937 13.6789 18.7551 13.0276 19.2308C12.3764 19.7065 11.5966 19.9744 10.7905 19.9991C9.98436 20.0239 9.18956 19.8046 8.5103 19.3698C7.83104 18.935 7.29902 18.3051 6.984 17.5627L6.89333 17.3333H5.33333C4.99349 17.333 4.66662 17.2028 4.41951 16.9695C4.17239 16.7362 4.02369 16.4174 4.00377 16.0781C3.98385 15.7389 4.09423 15.4048 4.31235 15.1442C4.53047 14.8836 4.83987 14.7161 5.17733 14.676L5.33333 14.6667H6.89333C7.16935 13.8866 7.68043 13.2112 8.3562 12.7337C9.03197 12.2561 9.83918 11.9998 10.6667 12ZM21.3333 4C23.0747 4 24.5573 5.11333 25.1067 6.66667H26.6667C27.0203 6.66667 27.3594 6.80714 27.6095 7.05719C27.8595 7.30724 28 7.64638 28 8C28 8.35362 27.8595 8.69276 27.6095 8.94281C27.3594 9.19286 27.0203 9.33333 26.6667 9.33333H25.1067C24.8312 10.114 24.3203 10.7901 23.6445 11.2683C22.9687 11.7465 22.1612 12.0033 21.3333 12.0033C20.5054 12.0033 19.6979 11.7465 19.0221 11.2683C18.3463 10.7901 17.8355 10.114 17.56 9.33333H5.33333C4.97971 9.33333 4.64057 9.19286 4.39052 8.94281C4.14048 8.69276 4 8.35362 4 8C4 7.64638 4.14048 7.30724 4.39052 7.05719C4.64057 6.80714 4.97971 6.66667 5.33333 6.66667H17.56C17.836 5.88657 18.3471 5.21123 19.0229 4.73365C19.6986 4.25608 20.5058 3.99976 21.3333 4Z" fill="url(#paint0_linear_0_5499)" fill-opacity="0.8"/>
<defs>
<linearGradient id="paint0_linear_0_5499" x1="28" y1="16.2075" x2="4" y2="16.2075" gradientUnits="userSpaceOnUse">
<stop stop-color="#FF006B"/>
<stop offset="1" stop-color="#0766F5"/>
</linearGradient>
</defs>
</svg>
