<svg width="16" height="17" viewBox="0 0 16 17" fill="none" xmlns="http://www.w3.org/2000/svg">
<path d="M10.9208 8.35044L15.4232 3.84797C15.9757 3.29546 15.9757 2.39964 15.4232 1.84668L14.4226 0.846028C13.8701 0.293511 12.9742 0.293511 12.4213 0.846028L7.9188 5.3485L3.41633 0.846028C2.86382 0.293511 1.968 0.293511 1.41504 0.846028L0.414387 1.84668C-0.138129 2.39919 -0.138129 3.29501 0.414387 3.84797L4.91686 8.35044L0.414387 12.8529C-0.138129 13.4054 -0.138129 14.3012 0.414387 14.8542L1.41504 15.8549C1.96755 16.4074 2.86382 16.4074 3.41633 15.8549L7.9188 11.3524L12.4213 15.8549C12.9738 16.4074 13.8701 16.4074 14.4226 15.8549L15.4232 14.8542C15.9757 14.3017 15.9757 13.4059 15.4232 12.8529L10.9208 8.35044Z" fill="url(#paint0_linear_0_1186)"/>
<defs>
<linearGradient id="paint0_linear_0_1186" x1="15.8376" y1="8.35043" x2="7.59567e-08" y2="8.35043" gradientUnits="userSpaceOnUse">
<stop stop-color="#FF006B"/>
<stop offset="0.524066" stop-color="#0766F5"/>
<stop offset="1" stop-color="#0766F5"/>
</linearGradient>
</defs>
</svg>
