<svg width="25" height="24" viewBox="0 0 25 24" fill="none" xmlns="http://www.w3.org/2000/svg">
<path fill-rule="evenodd" clip-rule="evenodd" d="M5.9863 0.359896C10.3154 -0.119965 14.6844 -0.119965 19.0135 0.359896C21.4104 0.628556 23.3442 2.51617 23.6255 4.92151C24.1389 9.31192 24.1389 13.7472 23.6255 18.1376C23.4832 19.3064 22.9502 20.3928 22.1131 21.2208C21.276 22.0488 20.1838 22.5698 19.0135 22.6992C14.6844 23.1806 10.3154 23.1806 5.9863 22.6992C4.81602 22.5698 3.72378 22.0488 2.88667 21.2208C2.04955 20.3928 1.51663 19.3064 1.3743 18.1376C0.860909 13.7477 0.860909 9.31285 1.3743 4.92291C1.51657 3.75434 2.04928 2.66805 2.88612 1.84011C3.72296 1.01216 4.81487 0.491069 5.9849 0.361295L5.9863 0.359896ZM12.4999 4.54371C12.7782 4.54371 13.0452 4.65428 13.242 4.85109C13.4388 5.0479 13.5493 5.31483 13.5493 5.59316V10.4808H18.437C18.7153 10.4808 18.9823 10.5914 19.1791 10.7882C19.3759 10.985 19.4864 11.2519 19.4864 11.5303C19.4864 11.8086 19.3759 12.0755 19.1791 12.2723C18.9823 12.4691 18.7153 12.5797 18.437 12.5797H13.5493V17.4674C13.5493 17.7457 13.4388 18.0126 13.242 18.2094C13.0452 18.4062 12.7782 18.5168 12.4999 18.5168C12.2216 18.5168 11.9546 18.4062 11.7578 18.2094C11.561 18.0126 11.4504 17.7457 11.4504 17.4674V12.5797H6.56279C6.28446 12.5797 6.01753 12.4691 5.82072 12.2723C5.62391 12.0755 5.51334 11.8086 5.51334 11.5303C5.51334 11.2519 5.62391 10.985 5.82072 10.7882C6.01753 10.5914 6.28446 10.4808 6.56279 10.4808H11.4504V5.59316C11.4504 5.31483 11.561 5.0479 11.7578 4.85109C11.9546 4.65428 12.2216 4.54371 12.4999 4.54371Z" fill="url(#paint0_linear_0_7514)" fill-opacity="0.8"/>
<defs>
<linearGradient id="paint0_linear_0_7514" x1="24.0105" y1="11.7279" x2="0.989258" y2="11.7279" gradientUnits="userSpaceOnUse">
<stop stop-color="#FF006B"/>
<stop offset="1" stop-color="#0766F5"/>
</linearGradient>
</defs>
</svg>
